<?xml version="1.0" standalone="no"?>
<!DOCTYPE svg PUBLIC "-//W3C//DTD SVG 20010904//EN"
 "http://www.w3.org/TR/2001/REC-SVG-20010904/DTD/svg10.dtd">
<svg version="1.0" xmlns="http://www.w3.org/2000/svg"
 width="2611.000000pt" height="930.000000pt" viewBox="0 0 2611.000000 930.000000"
 preserveAspectRatio="xMidYMid meet">
<g transform="translate(0.000000,930.000000) scale(0.100000,-0.100000)"
fill="#FFFFFF" stroke="none">
<path d="M1920 8735 c-365 -50 -707 -225 -958 -489 -214 -226 -355 -496 -424
-812 -21 -97 -22 -118 -25 -1059 -2 -528 -2 -1025 -1 -1105 l3 -145 65 90
c151 210 313 376 517 532 l112 85 4 707 c4 768 3 756 63 907 112 285 359 501
659 576 l90 23 2260 0 2260 0 89 -23 c121 -30 210 -70 309 -135 188 -126 330
-326 390 -550 l22 -82 0 -1765 c0 -1703 -1 -1768 -19 -1840 -93 -366 -373
-635 -734 -706 -62 -12 -324 -14 -1660 -14 l-1587 -1 -965 -895 c-531 -493
-1004 -932 -1052 -976 -77 -70 -89 -78 -108 -68 l-21 11 4 1482 3 1482 22 97
c64 280 184 500 377 693 153 154 328 262 530 330 139 47 255 64 471 72 l200 6
32 -101 c69 -215 196 -425 358 -586 199 -199 431 -327 723 -399 82 -20 116
-21 764 -24 l677 -4 0 260 0 261 369 0 c202 0 392 4 420 10 72 13 119 37 166
85 59 59 79 106 83 202 3 71 1 89 -20 135 -35 76 -70 112 -140 147 l-61 31
-409 0 -408 0 0 325 0 324 408 3 c401 3 408 3 457 26 60 28 107 71 143 131 21
36 27 60 30 131 5 112 -17 169 -95 240 -86 79 -93 80 -550 80 l-393 0 0 266 0
265 -662 -4 c-630 -3 -668 -5 -756 -25 -306 -69 -530 -190 -743 -402 -175
-174 -286 -355 -360 -584 l-31 -96 -173 0 c-290 0 -491 -29 -720 -105 -658
-216 -1169 -755 -1344 -1416 -71 -268 -66 -131 -66 -1889 l0 -1585 27 -80 c85
-248 285 -430 540 -490 92 -21 248 -19 344 5 98 25 202 75 274 134 30 24 478
436 994 915 l939 871 1431 0 c866 0 1468 4 1526 10 202 21 364 67 546 154 459
220 774 621 896 1138 l22 93 3 1830 c3 1786 3 1832 -16 1946 -59 344 -229 661
-486 907 -225 215 -487 352 -815 425 l-95 21 -2315 2 c-1866 2 -2333 0 -2410
-11z"/>
<path d="M13320 6180 l0 -2380 235 0 235 0 0 2380 0 2380 -235 0 -235 0 0
-2380z"/>
<path d="M19740 7430 c-426 -60 -768 -232 -1060 -536 -353 -367 -520 -782
-520 -1292 0 -524 178 -953 549 -1323 174 -173 316 -275 517 -370 526 -250
1228 -194 1716 137 104 71 170 125 276 228 l84 81 -5 -240 c-6 -248 -13 -306
-58 -436 -126 -368 -479 -687 -877 -793 -366 -98 -747 -32 -1069 183 -239 160
-415 369 -490 582 l-28 79 -232 0 c-132 0 -233 -4 -233 -9 0 -27 79 -230 125
-323 145 -291 390 -547 681 -711 439 -248 1045 -304 1532 -141 281 94 533 254
743 471 158 164 248 309 314 506 70 210 68 171 72 1207 4 973 1 1083 -37 1272
-68 333 -240 639 -508 904 -275 272 -571 433 -927 504 -123 25 -446 36 -565
20z m483 -476 c241 -46 456 -164 648 -354 154 -153 246 -286 325 -469 148
-342 134 -806 -36 -1156 -107 -221 -293 -431 -499 -563 -290 -186 -666 -240
-1021 -146 -423 111 -797 466 -935 889 -50 154 -60 226 -60 435 0 210 10 284
61 437 132 396 462 741 839 876 204 73 461 92 678 51z"/>
<path d="M10794 7399 c-400 -29 -759 -193 -1068 -489 -268 -256 -443 -544
-527 -868 -60 -234 -59 -194 -59 -1908 l0 -1564 230 0 230 0 0 879 0 880 78
-77 c264 -264 557 -424 911 -499 116 -25 145 -27 366 -28 267 0 365 13 556 76
513 169 975 634 1149 1158 177 532 114 1125 -169 1581 -220 353 -578 647 -937
768 -229 78 -499 110 -760 91z m404 -484 c362 -71 686 -311 895 -664 229 -386
247 -902 46 -1302 -119 -238 -317 -451 -544 -586 -225 -134 -519 -199 -785
-174 -315 30 -566 149 -794 376 -270 270 -408 606 -408 990 0 397 139 723 433
1016 193 192 422 312 679 354 108 18 364 13 478 -10z"/>
<path d="M23699 7385 c-341 -55 -600 -186 -839 -425 -281 -282 -425 -615 -450
-1040 -5 -85 -10 -597 -10 -1137 l0 -983 240 0 240 0 0 1043 c0 639 4 1077 10
1132 29 253 133 458 328 647 192 186 376 276 627 309 566 73 1123 -368 1194
-946 7 -60 11 -435 11 -1137 l0 -1048 240 0 240 0 0 1008 c0 596 -4 1062 -10
1142 -19 244 -69 430 -167 623 -210 412 -583 701 -1031 798 -127 27 -490 36
-623 14z"/>
<path d="M14493 6183 l3 -1138 23 -100 c72 -319 208 -571 427 -789 215 -215
448 -341 754 -408 92 -20 133 -22 340 -23 258 0 329 9 510 67 470 149 846 544
984 1033 62 218 59 158 63 1378 l4 1117 -240 0 -240 0 -3 -1117 -3 -1118 -24
-85 c-139 -509 -645 -866 -1146 -811 -233 25 -412 102 -592 255 -220 185 -352
427 -382 699 -7 62 -11 465 -11 1137 l0 1040 -235 0 -236 0 4 -1137z"/>
</g>
</svg>
