<?xml version="1.0" standalone="no"?>
<!DOCTYPE svg PUBLIC "-//W3C//DTD SVG 20010904//EN"
 "http://www.w3.org/TR/2001/REC-SVG-20010904/DTD/svg10.dtd">
<svg version="1.0" xmlns="http://www.w3.org/2000/svg"
 width="863.000000pt" height="865.000000pt" viewBox="0 0 863.000000 865.000000"
 preserveAspectRatio="xMidYMid meet">
<g transform="translate(0.000000,865.000000) scale(0.100000,-0.100000)"
fill="#FFFFFF" stroke="none">
<path d="M1920 8545 c-365 -50 -707 -225 -958 -489 -214 -226 -355 -496 -424
-812 -21 -97 -22 -118 -25 -1059 -2 -528 -2 -1025 -1 -1105 l3 -145 65 90
c151 210 313 376 517 532 l112 85 4 707 c4 768 3 756 63 907 112 285 359 501
659 576 l90 23 2260 0 2260 0 89 -23 c121 -30 210 -70 309 -135 188 -126 330
-326 390 -550 l22 -82 0 -1765 c0 -1703 -1 -1768 -19 -1840 -93 -366 -373
-635 -734 -706 -62 -12 -324 -14 -1660 -14 l-1587 -1 -965 -895 c-531 -493
-1004 -932 -1052 -976 -77 -70 -89 -78 -108 -68 l-21 11 4 1482 3 1482 22 97
c64 280 184 500 377 693 153 154 328 262 530 330 139 47 255 64 471 72 l200 6
32 -101 c69 -215 196 -425 358 -586 199 -199 431 -327 723 -399 82 -20 116
-21 764 -24 l677 -4 0 260 0 261 369 0 c202 0 392 4 420 10 72 13 119 37 166
85 59 59 79 106 83 202 3 71 1 89 -20 135 -35 76 -70 112 -140 147 l-61 31
-409 0 -408 0 0 325 0 324 408 3 c401 3 408 3 457 26 60 28 107 71 143 131 21
36 27 60 30 131 5 112 -17 169 -95 240 -86 79 -93 80 -550 80 l-393 0 0 266 0
265 -662 -4 c-630 -3 -668 -5 -756 -25 -306 -69 -530 -190 -743 -402 -175
-174 -286 -355 -360 -584 l-31 -96 -173 0 c-290 0 -491 -29 -720 -105 -658
-216 -1169 -755 -1344 -1416 -71 -268 -66 -131 -66 -1889 l0 -1585 27 -80 c85
-248 285 -430 540 -490 92 -21 248 -19 344 5 98 25 202 75 274 134 30 24 478
436 994 915 l939 871 1431 0 c866 0 1468 4 1526 10 202 21 364 67 546 154 459
220 774 621 896 1138 l22 93 3 1830 c3 1786 3 1832 -16 1946 -59 344 -229 661
-486 907 -225 215 -487 352 -815 425 l-95 21 -2315 2 c-1866 2 -2333 0 -2410
-11z"/>
</g>
</svg>
