<?xml version="1.0" standalone="no"?>
<!DOCTYPE svg PUBLIC "-//W3C//DTD SVG 20010904//EN"
 "http://www.w3.org/TR/2001/REC-SVG-20010904/DTD/svg10.dtd">
<svg version="1.0" xmlns="http://www.w3.org/2000/svg"
 width="847.000000pt" height="847.000000pt" viewBox="0 0 847.000000 847.000000"
 preserveAspectRatio="xMidYMid meet">
<metadata>
Created by potrace 1.11, written by Peter Selinger 2001-2013
</metadata>
<g transform="translate(0.000000,847.000000) scale(0.100000,-0.100000)"
fill="#000000" stroke="none">
<path d="M1900 8460 c-103 -15 -135 -21 -229 -46 -156 -41 -370 -136 -485
-217 -285 -201 -490 -454 -610 -754 -34 -85 -86 -271 -102 -363 -4 -25 -9
-535 -11 -1134 l-4 -1089 57 79 c113 158 266 326 408 449 57 49 187 149 215
165 12 7 15 111 16 696 1 379 5 712 9 739 28 178 125 371 253 502 79 81 150
133 259 191 28 15 84 38 129 53 142 46 88 45 2450 44 1221 -1 2238 -5 2260 -9
205 -38 368 -119 508 -255 121 -116 201 -248 254 -416 l28 -90 0 -1780 c0
-979 -4 -1798 -8 -1820 -84 -395 -394 -687 -797 -751 -25 -4 -755 -8 -1622 -8
l-1577 -1 -47 -45 c-26 -25 -57 -54 -69 -65 -73 -68 -250 -232 -259 -240 -24
-22 -285 -263 -346 -321 -36 -33 -99 -92 -140 -130 -73 -67 -284 -263 -361
-334 -53 -49 -229 -212 -260 -241 -15 -13 -75 -69 -134 -124 -59 -55 -120
-111 -135 -125 -81 -75 -250 -231 -294 -272 -28 -26 -56 -48 -63 -48 -40 0
-39 -42 -37 1496 1 808 4 1480 7 1494 3 14 8 44 11 67 16 124 89 321 172 460
159 269 427 490 714 588 194 66 276 78 535 79 l170 1 32 -98 c169 -523 601
-900 1149 -1001 76 -15 246 -19 749 -18 314 0 580 1 591 1 22 1 22 2 22 244 0
133 1 253 1 267 l1 25 408 0 407 0 55 26 c69 33 112 74 147 141 23 45 27 65
27 133 0 70 -4 88 -29 134 -37 68 -103 125 -168 147 -45 15 -102 17 -449 18
-350 0 -398 2 -399 16 -1 22 -1 613 0 627 1 9 100 13 414 15 403 3 413 4 461
25 60 28 115 84 146 149 34 69 34 179 0 249 -32 67 -99 129 -166 154 -52 20
-76 21 -454 21 l-400 0 -1 33 c0 17 -1 134 -1 260 l0 227 -617 -1 c-660 -1
-710 -4 -895 -53 -99 -26 -111 -31 -246 -93 -200 -92 -442 -301 -569 -492 -73
-110 -148 -264 -181 -371 -13 -41 -26 -78 -29 -82 -3 -3 -100 -8 -215 -9 -270
-4 -395 -20 -604 -80 -241 -68 -497 -196 -677 -338 -22 -17 -53 -41 -70 -54
-34 -25 -204 -194 -252 -248 -49 -57 -151 -197 -180 -248 -15 -25 -30 -48 -33
-51 -13 -12 -101 -194 -135 -278 -62 -159 -115 -364 -133 -521 -9 -80 -10
-3126 -1 -3161 23 -90 34 -121 57 -170 99 -214 299 -367 535 -411 63 -11 202
-14 247 -5 14 3 39 9 55 12 99 21 245 102 335 185 161 150 270 251 300 279 34
31 76 70 210 194 36 34 121 113 190 176 68 63 156 146 196 183 40 38 83 77 95
88 13 11 50 46 84 77 34 31 112 104 175 162 63 58 146 135 185 171 38 36 84
78 100 93 17 16 77 72 135 125 194 181 205 190 215 191 6 0 681 2 1500 4
l1490 3 122 26 c150 33 297 85 418 147 86 44 225 132 256 162 8 7 34 29 59 49
103 83 240 240 324 372 72 112 159 304 187 412 36 139 45 182 56 285 9 83 10
3525 0 3605 -65 562 -402 1039 -912 1290 -140 69 -307 124 -430 141 -16 2 -41
7 -55 11 -34 10 -4630 13 -4700 3z"/>
</g>
</svg>
